<?xml version="1.0" encoding="UTF-8" standalone="no"?>
<!DOCTYPE svg PUBLIC "-//W3C//DTD SVG 1.1//EN" "http://www.w3.org/Graphics/SVG/1.1/DTD/svg11.dtd">
<svg width="100%" height="100%" viewBox="0 0 15055 5971" version="1.1" xmlns="http://www.w3.org/2000/svg" xmlns:xlink="http://www.w3.org/1999/xlink" xml:space="preserve" xmlns:serif="http://www.serif.com/" style="fill-rule:evenodd;clip-rule:evenodd;stroke-linecap:round;stroke-linejoin:round;stroke-miterlimit:2;">
    <g transform="matrix(5.01832,0,0,3.98048,0,0)">
        <rect id="BURNS_W_DISC" x="0" y="0" width="3000" height="1500" style="fill:none;"/>
        <g id="BURNS_W_DISC1" serif:id="BURNS_W_DISC">
            <g transform="matrix(0.19927,0,0,0.251226,-830.066,-350.591)">
                <g id="Glow-2" serif:id="Glow 2" transform="matrix(0.75,0,0,0.75,1308.91,1080.88)">
                    <path d="M5384.67,1033.26C7241.62,1034.77 8748.69,2542.77 8748.69,4400C8748.69,6258.15 7240.11,7766.74 5381.95,7766.74L5381.95,4736.5C5567.67,4736.5 5718.45,4585.72 5718.45,4400C5718.45,4214.28 5567.67,4063.5 5381.95,4063.5L5381.95,1033.26L5384.67,1033.26Z" style="fill:rgb(243,207,22);"/>
                </g>
                <g id="Glow-1" serif:id="Glow 1" transform="matrix(0.75,0,0,0.75,973.157,1080.88)">
                    <path d="M5384.67,1033.26C7241.62,1034.77 8748.69,2542.77 8748.69,4400C8748.69,6258.15 7240.11,7766.74 5381.95,7766.74L5381.95,4736.5C5567.67,4736.5 5718.45,4585.72 5718.45,4400C5718.45,4214.28 5567.67,4063.5 5381.95,4063.5L5381.95,1033.26L5384.67,1033.26Z" style="fill:rgb(249,173,26);"/>
                </g>
                <g id="Base" transform="matrix(0.75,0,0,0.75,637.399,1080.88)">
                    <path d="M5384.67,1033.26C7241.62,1034.77 8748.69,2542.77 8748.69,4400C8748.69,6258.15 7240.11,7766.74 5381.95,7766.74L5381.95,4736.5C5567.67,4736.5 5718.45,4585.72 5718.45,4400C5718.45,4214.28 5567.67,4063.5 5381.95,4063.5L5381.95,1033.26L5384.67,1033.26Z" style="fill:rgb(211,30,41);"/>
                </g>
            </g>
            <g transform="matrix(0.500053,0,0,1.3484,-1922.32,-2374.9)">
                <g transform="matrix(1200,0,0,1200,5557.07,2753.63)">
                    <path d="M0.063,-0L0.063,-0.727L0.354,-0.727C0.408,-0.727 0.453,-0.719 0.488,-0.703C0.524,-0.688 0.551,-0.666 0.569,-0.638C0.587,-0.61 0.596,-0.577 0.596,-0.541C0.596,-0.512 0.59,-0.488 0.579,-0.466C0.567,-0.445 0.552,-0.427 0.532,-0.414C0.512,-0.4 0.49,-0.39 0.464,-0.385L0.464,-0.377C0.492,-0.376 0.518,-0.368 0.542,-0.354C0.567,-0.34 0.586,-0.319 0.602,-0.294C0.617,-0.268 0.624,-0.237 0.624,-0.201C0.624,-0.162 0.615,-0.128 0.596,-0.098C0.577,-0.068 0.549,-0.044 0.511,-0.026C0.474,-0.009 0.428,-0 0.374,-0L0.063,-0ZM0.217,-0.126L0.342,-0.126C0.385,-0.126 0.416,-0.134 0.436,-0.15C0.456,-0.167 0.466,-0.189 0.466,-0.216C0.466,-0.236 0.461,-0.254 0.451,-0.27C0.441,-0.285 0.427,-0.297 0.41,-0.306C0.392,-0.315 0.371,-0.319 0.346,-0.319L0.217,-0.319L0.217,-0.126ZM0.217,-0.423L0.331,-0.423C0.352,-0.423 0.371,-0.427 0.387,-0.434C0.404,-0.442 0.417,-0.452 0.426,-0.466C0.436,-0.48 0.441,-0.496 0.441,-0.515C0.441,-0.542 0.431,-0.563 0.413,-0.579C0.394,-0.595 0.368,-0.603 0.334,-0.603L0.217,-0.603L0.217,-0.423Z" style="fill:rgb(46,44,45);fill-rule:nonzero;stroke:rgb(48,44,42);stroke-width:0.03px;"/>
                </g>
                <g transform="matrix(1200,0,0,1200,6337.76,2753.63)">
                    <path d="M0.512,-0.727L0.666,-0.727L0.666,-0.255C0.666,-0.202 0.654,-0.156 0.628,-0.116C0.603,-0.076 0.568,-0.045 0.523,-0.023C0.478,-0.001 0.425,0.01 0.365,0.01C0.304,0.01 0.252,-0.001 0.206,-0.023C0.161,-0.045 0.126,-0.076 0.101,-0.116C0.076,-0.156 0.063,-0.202 0.063,-0.255L0.063,-0.727L0.217,-0.727L0.217,-0.268C0.217,-0.24 0.223,-0.216 0.235,-0.194C0.247,-0.173 0.265,-0.156 0.287,-0.143C0.309,-0.131 0.335,-0.125 0.365,-0.125C0.395,-0.125 0.421,-0.131 0.443,-0.143C0.465,-0.156 0.482,-0.173 0.494,-0.194C0.506,-0.216 0.512,-0.24 0.512,-0.268L0.512,-0.727Z" style="fill:rgb(46,44,45);fill-rule:nonzero;stroke:rgb(48,44,42);stroke-width:0.03px;"/>
                </g>
                <g transform="matrix(1200,0,0,1200,7227.53,2753.63)">
                    <path d="M0.063,-0L0.063,-0.727L0.35,-0.727C0.405,-0.727 0.452,-0.718 0.491,-0.698C0.53,-0.678 0.56,-0.651 0.58,-0.615C0.601,-0.58 0.611,-0.538 0.611,-0.49C0.611,-0.441 0.6,-0.4 0.58,-0.365C0.559,-0.331 0.529,-0.304 0.489,-0.286C0.45,-0.267 0.402,-0.258 0.346,-0.258L0.154,-0.258L0.154,-0.381L0.321,-0.381C0.351,-0.381 0.375,-0.385 0.395,-0.393C0.414,-0.402 0.428,-0.414 0.438,-0.43C0.448,-0.446 0.452,-0.466 0.452,-0.49C0.452,-0.514 0.448,-0.534 0.438,-0.551C0.428,-0.567 0.414,-0.58 0.394,-0.589C0.375,-0.597 0.35,-0.602 0.321,-0.602L0.217,-0.602L0.217,-0L0.063,-0ZM0.456,-0.331L0.637,-0L0.467,-0L0.29,-0.331L0.456,-0.331Z" style="fill:rgb(46,44,45);fill-rule:nonzero;stroke:rgb(48,44,42);stroke-width:0.03px;"/>
                </g>
                <g transform="matrix(1200,0,0,1200,7994.57,2753.63)">
                    <path d="M0.672,-0.727L0.672,-0L0.539,-0L0.222,-0.458L0.217,-0.458L0.217,-0L0.063,-0L0.063,-0.727L0.198,-0.727L0.512,-0.27L0.518,-0.27L0.518,-0.727L0.672,-0.727Z" style="fill:rgb(46,44,45);fill-rule:nonzero;stroke:rgb(48,44,42);stroke-width:0.03px;"/>
                </g>
                <g transform="matrix(1200,0,0,1200,8897.98,2753.63)">
                    <path d="M0.458,-0.518C0.455,-0.547 0.443,-0.569 0.421,-0.585C0.4,-0.601 0.37,-0.609 0.333,-0.609C0.308,-0.609 0.287,-0.605 0.27,-0.598C0.253,-0.591 0.239,-0.582 0.23,-0.569C0.221,-0.557 0.217,-0.543 0.217,-0.527C0.216,-0.514 0.219,-0.503 0.225,-0.493C0.231,-0.484 0.239,-0.475 0.25,-0.468C0.261,-0.461 0.273,-0.455 0.287,-0.45C0.301,-0.445 0.316,-0.441 0.332,-0.437L0.397,-0.422C0.429,-0.414 0.458,-0.405 0.484,-0.393C0.511,-0.381 0.534,-0.367 0.553,-0.349C0.573,-0.332 0.588,-0.312 0.599,-0.288C0.609,-0.265 0.615,-0.238 0.615,-0.208C0.615,-0.163 0.604,-0.125 0.581,-0.092C0.559,-0.06 0.527,-0.034 0.485,-0.017C0.443,0.001 0.392,0.01 0.333,0.01C0.274,0.01 0.223,0.001 0.18,-0.017C0.136,-0.035 0.102,-0.061 0.078,-0.097C0.054,-0.132 0.041,-0.176 0.04,-0.228L0.189,-0.228C0.19,-0.204 0.197,-0.184 0.21,-0.167C0.222,-0.151 0.239,-0.139 0.26,-0.131C0.281,-0.123 0.304,-0.119 0.331,-0.119C0.357,-0.119 0.38,-0.122 0.399,-0.13C0.418,-0.138 0.433,-0.148 0.444,-0.162C0.455,-0.175 0.46,-0.191 0.46,-0.208C0.46,-0.224 0.455,-0.238 0.445,-0.249C0.436,-0.26 0.422,-0.27 0.404,-0.278C0.385,-0.286 0.363,-0.293 0.336,-0.299L0.257,-0.319C0.196,-0.334 0.147,-0.357 0.112,-0.389C0.076,-0.421 0.059,-0.463 0.059,-0.517C0.059,-0.561 0.07,-0.6 0.094,-0.632C0.118,-0.665 0.151,-0.691 0.192,-0.71C0.234,-0.728 0.281,-0.737 0.335,-0.737C0.388,-0.737 0.436,-0.728 0.476,-0.71C0.516,-0.691 0.548,-0.665 0.57,-0.632C0.593,-0.6 0.604,-0.561 0.605,-0.518L0.458,-0.518Z" style="fill:rgb(46,44,45);fill-rule:nonzero;stroke:rgb(48,44,42);stroke-width:0.03px;"/>
                </g>
            </g>
        </g>
    </g>
</svg>
